<svg width="40" height="40" viewBox="0 0 40 40" fill="none" xmlns="http://www.w3.org/2000/svg">
<path d="M33.2 0.200195C36.8451 0.200195 39.8 3.15512 39.8 6.80019V33.2002C39.8 36.8453 36.8451 39.8002 33.2 39.8002H6.8C3.15492 39.8002 0.199997 36.8453 0.199997 33.2002V6.80019C0.199997 3.15512 3.15492 0.200195 6.8 0.200195H33.2ZM29.8333 11.1335L15.6 25.3667L10.1667 19.9335C9.52236 19.2891 8.47764 19.2891 7.83327 19.9335C7.1889 20.5778 7.1889 21.6226 7.83327 22.2669L14.4333 28.8669C15.0776 29.5113 16.1224 29.5113 16.7667 28.8669L32.1667 13.4669C32.8111 12.8226 32.8111 11.7778 32.1667 11.1335C31.5224 10.4891 30.4776 10.4891 29.8333 11.1335Z" fill="#5E25C8"/>
</svg>
