<svg width="40" height="40" viewBox="0 0 40 40" fill="none" xmlns="http://www.w3.org/2000/svg">
<g clip-path="url(#clip0_165_640)">
<path d="M36.4216 39.7057C37.3795 39.7057 38.1664 39.3978 38.7822 38.782C39.398 38.1662 39.7059 37.3793 39.7059 36.4214V3.57826C39.7059 2.62033 39.398 1.83347 38.7822 1.21766C38.1664 0.60185 37.3795 0.293945 36.4216 0.293945H3.57843C2.62051 0.293945 1.83364 0.60185 1.21783 1.21766C0.602024 1.83347 0.294121 2.62033 0.294121 3.57826V36.4214C0.294121 37.3793 0.602024 38.1662 1.21783 38.782C1.83364 39.3978 2.62051 39.7057 3.57843 39.7057H36.4216ZM20 23.2841L13.4314 29.8528L10.1471 26.5685L16.7157 19.9998L10.1471 13.4312L13.4314 10.1469L20 16.7155L26.5686 10.1469L29.8529 13.4312L23.2843 19.9998L29.8529 26.5685L26.5686 29.8528L20 23.2841Z" fill="#FF0000"/>
</g>
<defs>
<clipPath id="clip0_165_640">
<rect width="40" height="40" fill="white" transform="matrix(-1 0 0 1 40 0)"/>
</clipPath>
</defs>
</svg>
